<svg height="480pt" viewBox="-16 0 480 480" width="480pt" xmlns="http://www.w3.org/2000/svg"><path d="m328 112c0 57.4375-46.5625 104-104 104s-104-46.5625-104-104 46.5625-104 104-104 104 46.5625 104 104zm0 0" fill="#9bc9ff"/><path d="m328 112c.035156 44.140625-27.816406 83.488281-69.460938 98.128906-41.640624 14.636719-87.988281 1.367188-115.578124-33.089844 31.167968 25.089844 73.976562 30.046876 110.058593 12.75 36.078125-17.296874 59.019531-53.777343 58.980469-93.789062.046875-23.675781-8.0625-46.640625-22.960938-65.039062 24.664063 19.660156 39.007813 49.5 38.960938 81.039062zm0 0" fill="#57a4ff"/><path d="m327.839844 107.921875-31.839844-27.921875-24 8 16 24-48 80-32-24 24-40-24-32 24-32-40-16-10.320312-31.039062c31.511718-14.007813 67.914062-11.480469 97.191406 6.738281s47.617187 49.765625 48.96875 84.222656zm0 0" fill="#a4e276"/><path d="m160 112 24 48-15.039062 40.160156c-30.480469-18.929687-49-52.28125-48.960938-88.160156-.019531-4.898438.328125-9.792969 1.039062-14.640625zm0 0" fill="#a4e276"/><path d="m272.078125 88.160156 15.921875 23.839844-48 80-32-24 5.039062-8.320312 11.121094 8.320312zm0 0" fill="#91dc5a"/><path d="m184 160-15.039062 40.160156c-16.878907-10.519531-30.398438-25.648437-38.960938-43.601562 6.695312 7.644531 14.484375 14.25 23.121094 19.601562l15.039062-40.160156-12.878906-25.761719 4.71875 1.761719zm0 0" fill="#91dc5a"/><path d="m272.160156 88-.082031.160156-.078125-.160156zm0 0" fill="#c0ab91"/><g fill="#ffdaaa"><path d="m80 320h32v48h-32zm0 0"/><path d="m392 264v32c-.003906 14.683594-9.996094 27.480469-24.238281 31.039062-2.539063.644532-5.144531.96875-7.761719.960938h-16c-2.617188.007812-5.222656-.316406-7.761719-.960938-14.242187-3.558593-24.234375-16.355468-24.238281-31.039062v-32c0-17.671875 14.328125-32 32-32h16c17.671875 0 32 14.328125 32 32zm0 0"/><path d="m136 264v32c-.003906 14.683594-9.996094 27.480469-24.238281 31.039062-2.539063.644532-5.144531.96875-7.761719.960938h-16c-2.617188.007812-5.222656-.316406-7.761719-.960938-14.242187-3.558593-24.234375-16.355468-24.238281-31.039062v-32c0-17.671875 14.328125-32 32-32h16c17.671875 0 32 14.328125 32 32zm0 0"/></g><path d="m136 264v32c-.003906 14.683594-9.996094 27.480469-24.238281 31.039062-2.539063.644532-5.144531.96875-7.761719.960938h-16c-2.617188.007812-5.222656-.316406-7.761719-.960938-9.511719-2.371093-17.414062-8.976562-21.4375-17.917968 4.140625 1.902344 8.644531 2.886718 13.199219 2.878906h16c2.617188.007812 5.222656-.316406 7.761719-.960938 14.242187-3.558593 24.234375-16.355468 24.238281-31.039062v-32c-.003906-4.53125-.984375-9.003906-2.878906-13.121094 11.484375 5.136719 18.878906 16.542969 18.878906 29.121094zm0 0" fill="#ffc477"/><path d="m240 304c0 8.835938-7.164062 16-16 16s-16-7.164062-16-16 7.164062-16 16-16 16 7.164062 16 16zm0 0" fill="#ff9478"/><path d="m240 304c-.035156 7.515625-5.292969 13.992188-12.640625 15.570312-7.347656 1.578126-14.804687-2.171874-17.917969-9.011718 2.050782.96875 4.292969 1.460937 6.558594 1.441406 8.824219-.027344 15.972656-7.175781 16-16 .019531-2.265625-.472656-4.507812-1.441406-6.558594 5.734375 2.574219 9.429687 8.273438 9.441406 14.558594zm0 0" fill="#ff6243"/><path d="m392 272v24c-.003906 14.683594-9.996094 27.480469-24.238281 31.039062-2.539063.644532-5.144531.96875-7.761719.960938h-16c-2.617188.007812-5.222656-.316406-7.761719-.960938-14.242187-3.558593-24.234375-16.355468-24.238281-31.039062v-24h24l24-8 8 8zm0 0" fill="#ffdaaa"/><path d="m392 264v8h-24l-8-8-24 8h-24v-8c0-17.671875 14.328125-32 32-32h16c17.671875 0 32 14.328125 32 32zm0 0" fill="#d9ccbc"/><path d="m392 272v24c-.003906 14.683594-9.996094 27.480469-24.238281 31.039062-2.539063.644532-5.144531.96875-7.761719.960938h-16c-2.617188.007812-5.222656-.316406-7.761719-.960938-14.242187-3.558593-24.234375-16.355468-24.238281-31.039062v-24h24l24-8 8 8zm0 0" fill="#ffdaaa"/><path d="m392 264v8h-24l-8-8-24 8h-24v-8c0-17.671875 14.328125-32 32-32h16c17.671875 0 32 14.328125 32 32zm0 0" fill="#d9ccbc"/><path d="m392 272v24c-.003906 14.683594-9.996094 27.480469-24.238281 31.039062-2.539063.644532-5.144531.96875-7.761719.960938h-16c-2.617188.007812-5.222656-.316406-7.761719-.960938-14.242187-3.558593-24.234375-16.355468-24.238281-31.039062v-24h24l24-8 8 8zm0 0" fill="#ffdaaa"/><path d="m392 264v8h-24l-8-8-24 8h-24v-8c0-17.671875 14.328125-32 32-32h16c17.671875 0 32 14.328125 32 32zm0 0" fill="#d9ccbc"/><path d="m392 272v24c-.003906 14.683594-9.996094 27.480469-24.238281 31.039062-2.539063.644532-5.144531.96875-7.761719.960938h-16c-2.617188.007812-5.222656-.316406-7.761719-.960938-14.242187-3.558593-24.234375-16.355468-24.238281-31.039062v-24h24l24-8 8 8zm0 0" fill="#ffdaaa"/><path d="m392 264v8h-24l-8-8-24 8h-24v-8c0-17.671875 14.328125-32 32-32h16c17.671875 0 32 14.328125 32 32zm0 0" fill="#d9ccbc"/><path d="m392 272v24c-.003906 14.683594-9.996094 27.480469-24.238281 31.039062-2.539063.644532-5.144531.96875-7.761719.960938h-16c-2.617188.007812-5.222656-.316406-7.761719-.960938-14.242187-3.558593-24.234375-16.355468-24.238281-31.039062v-24h24l24-8 8 8zm0 0" fill="#ffdaaa"/><path d="m392 264v8h-24l-8-8-24 8h-24v-8c0-17.671875 14.328125-32 32-32h16c17.671875 0 32 14.328125 32 32zm0 0" fill="#d9ccbc"/><path d="m392 272v24c-.003906 14.683594-9.996094 27.480469-24.238281 31.039062-2.539063.644532-5.144531.96875-7.761719.960938h-16c-2.617188.007812-5.222656-.316406-7.761719-.960938-14.242187-3.558593-24.234375-16.355468-24.238281-31.039062v-24h24l24-8 8 8zm0 0" fill="#ffdaaa"/><path d="m392 264v8h-24l-8-8-24 8h-24v-8c0-17.671875 14.328125-32 32-32h16c17.671875 0 32 14.328125 32 32zm0 0" fill="#d9ccbc"/><path d="m368 328v32h-32v-32l.238281-.960938c2.539063.644532 5.144531.96875 7.761719.960938h16c2.617188.007812 5.222656-.316406 7.761719-.960938zm0 0" fill="#ffdaaa"/><path d="m440 408v48c-.027344 8.824219-7.175781 15.972656-16 16h-144c-8.824219-.027344-15.972656-7.175781-16-16v-48c0-26.507812 21.492188-48 48-48l16 80h48l16-80c26.507812 0 48 21.492188 48 48zm0 0" fill="#ff9478"/><path d="m392 360-16 80h-48l-16-80zm0 0" fill="#9bc9ff"/><path d="m184 408v48c-.027344 8.824219-7.175781 15.972656-16 16h-144c-8.824219-.027344-15.972656-7.175781-16-16v-48c0-26.507812 21.492188-48 48-48h80c26.507812 0 48 21.492188 48 48zm0 0" fill="#a4e276"/><path d="m184 408v48c-.027344 8.824219-7.175781 15.972656-16 16h-144c-8.824219-.027344-15.972656-7.175781-16-16h144c8.824219-.027344 15.972656-7.175781 16-16v-48c.027344-8.8125-2.414062-17.457031-7.039062-24.960938 14.320312 8.679688 23.0625 24.214844 23.039062 40.960938zm0 0" fill="#91dc5a"/><path d="m136 264v8h-24l-8-8-24 8h-24v-8c0-17.671875 14.328125-32 32-32h16c17.671875 0 32 14.328125 32 32zm0 0" fill="#898890"/><path d="m136 360-16 80h-48l-16-80zm0 0" fill="#9bc9ff"/><path d="m136 360-16 80h-48l-3.199219-16h35.199219l12.800781-64zm0 0" fill="#57a4ff"/><path d="m392 264v32c-.003906 14.683594-9.996094 27.480469-24.238281 31.039062-2.539063.644532-5.144531.96875-7.761719.960938h-16c-2.617188.007812-5.222656-.316406-7.761719-.960938-9.511719-2.371093-17.414062-8.976562-21.4375-17.917968 4.140625 1.902344 8.644531 2.886718 13.199219 2.878906h16c2.617188.007812 5.222656-.316406 7.761719-.960938 14.242187-3.558593 24.234375-16.355468 24.238281-31.039062v-32c-.003906-4.53125-.984375-9.003906-2.878906-13.121094 11.484375 5.136719 18.878906 16.542969 18.878906 29.121094zm0 0" fill="#ffc477"/><path d="m440 408v48c-.027344 8.824219-7.175781 15.972656-16 16h-144c-8.824219-.027344-15.972656-7.175781-16-16h144c8.824219-.027344 15.972656-7.175781 16-16v-48c.027344-8.8125-2.414062-17.457031-7.039062-24.960938 14.320312 8.679688 23.0625 24.214844 23.039062 40.960938zm0 0" fill="#ff7956"/><path d="m392 360-16 80h-48l-3.199219-16h35.199219l12.800781-64zm0 0" fill="#57a4ff"/><path d="m392 264v8h-24l-8-8-24 8h-24v-8c0-17.671875 14.328125-32 32-32h16c17.671875 0 32 14.328125 32 32zm0 0" fill="#898890"/><path d="m136 352h-16v-19.390625c14.558594-6.355469 23.980469-20.722656 24-36.609375v-32c-.027344-22.082031-17.917969-39.972656-40-40h-16c-22.082031.027344-39.972656 17.917969-40 40v32c.019531 15.886719 9.441406 30.253906 24 36.609375v19.390625h-16c-30.914062.035156-55.9648438 25.085938-56 56v48c0 13.253906 10.746094 24 24 24h144c13.253906 0 24-10.746094 24-24v-48c-.035156-30.914062-25.085938-55.964844-56-56zm-48-112h16c13.253906 0 24 10.746094 24 24h-12.6875l-5.65625-5.65625c-2.140625-2.140625-5.308594-2.890625-8.183594-1.9375l-22.769531 7.59375h-14.703125c0-13.253906 10.746094-24 24-24zm-24 56v-16h16c.859375 0 1.710938-.136719 2.527344-.40625l19.3125-6.402344 4.503906 4.503906c1.507812 1.488282 3.539062 2.316407 5.65625 2.304688h16v16c0 13.253906-10.746094 24-24 24h-16c-13.253906 0-24-10.746094-24-24zm24 40h16v16h-16zm38.238281 32-12.796875 64h-34.882812l-12.796875-64zm49.761719 88c0 4.417969-3.582031 8-8 8h-144c-4.417969 0-8-3.582031-8-8v-48c.066406-19.570312 14.28125-36.222656 33.601562-39.351562l14.558594 72.953124c.761719 3.722657 4.039063 6.398438 7.839844 6.398438h48c3.800781 0 7.078125-2.675781 7.839844-6.398438l14.558594-72.953124c19.320312 3.128906 33.535156 19.78125 33.601562 39.351562zm0 0"/><path d="m392 352h-16v-19.390625c14.558594-6.355469 23.980469-20.722656 24-36.609375v-32c-.027344-22.082031-17.917969-39.972656-40-40h-16c-22.082031.027344-39.972656 17.917969-40 40v32c.019531 15.886719 9.441406 30.253906 24 36.609375v19.390625h-16c-30.914062.035156-55.964844 25.085938-56 56v48c0 13.253906 10.746094 24 24 24h144c13.253906 0 24-10.746094 24-24v-48c-.035156-30.914062-25.085938-55.964844-56-56zm-48-112h16c13.253906 0 24 10.746094 24 24h-12.6875l-5.65625-5.65625c-2.140625-2.140625-5.308594-2.890625-8.183594-1.9375l-22.769531 7.59375h-14.703125c0-13.253906 10.746094-24 24-24zm-24 56v-16h16c.859375 0 1.710938-.136719 2.527344-.40625l19.3125-6.402344 4.503906 4.503906c1.507812 1.488282 3.539062 2.316407 5.65625 2.304688h16v16c0 13.253906-10.746094 24-24 24h-16c-13.253906 0-24-10.746094-24-24zm24 40h16v16h-16zm38.238281 32-12.796875 64h-34.882812l-12.796875-64zm49.761719 88c0 4.417969-3.582031 8-8 8h-144c-4.417969 0-8-3.582031-8-8v-48c.066406-19.570312 14.28125-36.222656 33.601562-39.351562l14.558594 72.953124c.761719 3.722657 4.039063 6.398438 7.839844 6.398438h48c3.800781 0 7.078125-2.675781 7.839844-6.398438l14.558594-72.953124c19.320312 3.128906 33.535156 19.78125 33.601562 39.351562zm0 0"/><path d="m224 224c61.855469 0 112-50.144531 112-112s-50.144531-112-112-112-112 50.144531-112 112c.066406 61.828125 50.171875 111.933594 112 112zm92.71875-136.472656-15.445312-13.542969c-2.132813-1.882813-5.101563-2.492187-7.800782-1.601563l-24 8c-2.359375.792969-4.214844 2.632813-5.023437 4.984376-.808594 2.351562-.476563 4.945312.894531 7.015624l13.191406 19.785157-40.800781 68.054687-19.132813-14.351562 20.285157-33.808594c1.644531-2.78125 1.449219-6.277344-.488281-8.863281l-20.398438-27.199219 20.398438-27.199219c1.496093-1.992187 1.980468-4.566406 1.308593-6.960937-.671875-2.398438-2.417969-4.347656-4.730469-5.273438l-36.578124-14.613281-6.726563-20.242187c25.285156-9.164063 53.265625-7.246094 77.066406 5.28125 23.800781 12.527343 41.21875 34.503906 47.980469 60.535156zm-139.679688-59.199219 7.367188 22.160156c.742188 2.238281 2.429688 4.035157 4.617188 4.910157l30.3125 12.121093-17.734376 23.679688c-2.136718 2.84375-2.136718 6.757812 0 9.601562l20.796876 27.695313-21.222657 35.382812c-2.121093 3.507813-1.246093 8.050782 2.023438 10.519532l32 24c1.386719 1.039062 3.070312 1.601562 4.800781 1.601562.515625 0 1.03125-.050781 1.535156-.152344 2.222656-.433594 4.15625-1.789062 5.320313-3.726562l48-80c1.59375-2.652344 1.515625-5.988282-.199219-8.5625l-10.191406-15.277344 9.710937-3.203125 25.824219 22.59375v.328125c.027344 33.730469-17.667969 65-46.597656 82.347656-28.929688 17.34375-64.84375 18.222656-94.585938 2.308594l12.679688-33.847656c.785156-2.085938.664062-4.40625-.335938-6.402344l-24-48c-.902344-1.804688-2.453125-3.199219-4.34375-3.910156l-32.746094-12.304688c5.769532-27.03125 22.875-50.285156 46.96875-63.832031zm-48.863281 80.257813 26.070313 9.8125 21.042968 42.082031-10.183593 27.199219c-23.398438-18.136719-37.09375-46.074219-37.105469-75.679688 0-1.152344.136719-2.273438.175781-3.414062zm0 0"/><path d="m288 312v-16h-41.472656c-2.417969-6.777344-7.75-12.109375-14.527344-14.527344v-41.472656h-16v41.472656c-6.777344 2.417969-12.109375 7.75-14.527344 14.527344h-41.472656v16h41.472656c3.339844 9.585938 12.378906 16.007812 22.527344 16.007812s19.1875-6.421874 22.527344-16.007812zm-64 0c-4.417969 0-8-3.582031-8-8s3.582031-8 8-8 8 3.582031 8 8-3.582031 8-8 8zm0 0"/></svg>