<?xml version="1.0" encoding="utf-8"?>
<!-- Generator: Adobe Illustrator 22.1.0, SVG Export Plug-In . SVG Version: 6.00 Build 0)  -->
<svg version="1.1" id="Layer_1" xmlns="http://www.w3.org/2000/svg" xmlns:xlink="http://www.w3.org/1999/xlink" x="0px" y="0px"
	 viewBox="0 0 2500 662" style="enable-background:new 0 0 2500 662;" xml:space="preserve">
<style type="text/css">
	.st0{fill:#006699;}
	.st1{fill:#FFFFFF;}
</style>
<path class="st0" d="M1841.8,47.4c0-26.2,21.8-47.4,48.6-47.4H2451c26.9,0,48.6,21.2,48.6,47.4v567.2c0,26.2-21.8,47.4-48.6,47.4
	h-560.6c-26.8,0-48.6-21.2-48.6-47.4L1841.8,47.4L1841.8,47.4z"/>
<path class="st1" d="M0.3,554.5h274.5v-90.1H99.7V120.5H0.3V554.5z M413.9,554.5V255.6h-99.4v298.9H413.9z M364.2,214.8
	c34.6,0,56.2-23,56.2-51.7c-0.6-29.3-21.6-51.6-55.5-51.6c-34,0-56.2,22.3-56.2,51.6c0,28.7,21.6,51.7,54.9,51.7H364.2L364.2,214.8z
	 M460,554.5h99.4V387.6c0-8.9,0.6-17.9,3.3-24.2c7.2-17.9,23.5-36.3,51-36.3c36,0,50.3,27.4,50.3,67.6v159.9h99.3V383.1
	c0-91.8-49-134.5-114.4-134.5c-53.6,0-77.1,30-90.2,50.4h0.7v-43.4H460C461.3,283.6,460,554.5,460,554.5z M903.5,120.5h-99.4v434
	h99.4v-96.9l24.8-31.3l77.8,128.2h122.2L997.6,369L1112,242.7H992.4c0,0-81.7,112.9-88.9,126.3V120.5z"/>
<path class="st1" d="M1394,429.8c1.3-7.7,3.3-22.4,3.3-39.1c0-77.3-39.2-155.7-142.5-155.7c-110.5,0-161.5,87.4-161.5,166.6
	c0,98,62.1,159.2,170.6,159.2c43.2,0,83-6.4,115.7-19.8l-13.1-65.6c-26.8,8.9-54.3,13.3-88.2,13.3c-46.4,0-86.9-19.1-90.2-59.7
	L1394,429.8L1394,429.8L1394,429.8z M1187.5,362.6c2.6-25.5,19.6-63.1,62.1-63.1c45.1,0,55.6,40.2,55.6,63.1H1187.5L1187.5,362.6z
	 M1642.5,120.5v150.2h-1.3c-14.4-21-44.5-35.1-84.3-35.1c-76.5,0-143.8,61.2-143.2,165.8c0,96.9,60.8,160.1,136.6,160.1
	c41.2,0,80.4-17.9,100-52.3h2l3.9,45.3h88.2c-1.3-21-2.6-57.4-2.6-93.1V120.5L1642.5,120.5L1642.5,120.5z M1642.5,416.2
	c0,7.6-0.7,15.3-2,21.7c-5.9,27.4-29.4,46.5-58.2,46.5c-41.2,0-68-33.1-68-85.4c0-49.1,22.9-88.6,68.6-88.6
	c30.7,0,52.3,21,58.2,47.2c1.3,5.8,1.3,12.1,1.3,17.9L1642.5,416.2L1642.5,416.2z"/>
<path class="st1" d="M2041.2,554.2V255.2h-99.4v298.9H2041.2L2041.2,554.2z M1991.6,214.4c34.6,0,56.2-23,56.2-51.6
	c-0.7-29.3-21.6-51.7-55.5-51.7c-34,0-56.2,22.3-56.2,51.7c0,28.7,21.6,51.6,54.9,51.6H1991.6L1991.6,214.4z M2096.2,554.2h99.4
	V387.2c0-8.9,0.7-17.9,3.3-24.2c7.2-17.9,23.5-36.3,51-36.3c35.9,0,50.3,27.4,50.3,67.6v159.9h99.4V382.8
	c0-91.8-49-134.5-114.4-134.5c-53.6,0-77.1,30-90.2,50.4h0.7v-43.3h-99.4C2097.5,283.3,2096.2,554.2,2096.2,554.2L2096.2,554.2z"/>
</svg>
